<mxfile host="app.diagrams.net" agent="Mozilla/5.0 (Macintosh; Intel Mac OS X 10_15_7) AppleWebKit/537.36 (KHTML, like Gecko) Chrome/127.0.0.0 Safari/537.36" version="24.7.12">
  <diagram name="Page-1" id="Mzoiz4P2WPhJF252s8Bs">
    <mxGraphModel dx="1026" dy="651" grid="1" gridSize="10" guides="1" tooltips="1" connect="1" arrows="1" fold="1" page="1" pageScale="1" pageWidth="850" pageHeight="1100" math="0" shadow="0">
      <root>
        <mxCell id="0" />
        <mxCell id="1" parent="0" />
        <mxCell id="os59JqNCktKEL3DrPtIN-1" value="Client" style="verticalLabelPosition=bottom;html=1;verticalAlign=top;align=center;strokeColor=none;fillColor=#00BEF2;shape=mxgraph.azure.mobile;pointerEvents=1;" vertex="1" parent="1">
          <mxGeometry x="70" y="230" width="30" height="50" as="geometry" />
        </mxCell>
        <mxCell id="os59JqNCktKEL3DrPtIN-12" style="edgeStyle=orthogonalEdgeStyle;rounded=0;orthogonalLoop=1;jettySize=auto;html=1;entryX=0;entryY=0.5;entryDx=0;entryDy=0;" edge="1" parent="1" source="os59JqNCktKEL3DrPtIN-2" target="os59JqNCktKEL3DrPtIN-3">
          <mxGeometry relative="1" as="geometry" />
        </mxCell>
        <mxCell id="os59JqNCktKEL3DrPtIN-13" style="edgeStyle=orthogonalEdgeStyle;rounded=0;orthogonalLoop=1;jettySize=auto;html=1;entryX=0;entryY=0.75;entryDx=0;entryDy=0;" edge="1" parent="1" source="os59JqNCktKEL3DrPtIN-2" target="os59JqNCktKEL3DrPtIN-8">
          <mxGeometry relative="1" as="geometry" />
        </mxCell>
        <mxCell id="os59JqNCktKEL3DrPtIN-2" value="Load Balancer" style="outlineConnect=0;dashed=0;verticalLabelPosition=bottom;verticalAlign=top;align=center;html=1;shape=mxgraph.aws3.classic_load_balancer;fillColor=#F58534;gradientColor=none;" vertex="1" parent="1">
          <mxGeometry x="220" y="219" width="69" height="72" as="geometry" />
        </mxCell>
        <mxCell id="os59JqNCktKEL3DrPtIN-14" style="edgeStyle=orthogonalEdgeStyle;rounded=0;orthogonalLoop=1;jettySize=auto;html=1;entryX=0;entryY=0.5;entryDx=0;entryDy=0;" edge="1" parent="1" source="os59JqNCktKEL3DrPtIN-3" target="os59JqNCktKEL3DrPtIN-5">
          <mxGeometry relative="1" as="geometry" />
        </mxCell>
        <mxCell id="os59JqNCktKEL3DrPtIN-3" value="Write service" style="rounded=1;whiteSpace=wrap;html=1;" vertex="1" parent="1">
          <mxGeometry x="425" y="130" width="125" height="60" as="geometry" />
        </mxCell>
        <mxCell id="os59JqNCktKEL3DrPtIN-4" value="Read service" style="rounded=1;whiteSpace=wrap;html=1;" vertex="1" parent="1">
          <mxGeometry x="425" y="340" width="120" height="60" as="geometry" />
        </mxCell>
        <mxCell id="os59JqNCktKEL3DrPtIN-5" value="URL generator service" style="rounded=1;whiteSpace=wrap;html=1;" vertex="1" parent="1">
          <mxGeometry x="680" y="130" width="120" height="60" as="geometry" />
        </mxCell>
        <mxCell id="os59JqNCktKEL3DrPtIN-6" value="Database" style="shape=cylinder3;whiteSpace=wrap;html=1;boundedLbl=1;backgroundOutline=1;size=15;" vertex="1" parent="1">
          <mxGeometry x="850" y="270" width="60" height="80" as="geometry" />
        </mxCell>
        <mxCell id="os59JqNCktKEL3DrPtIN-7" value="" style="outlineConnect=0;dashed=0;verticalLabelPosition=bottom;verticalAlign=top;align=center;html=1;shape=mxgraph.aws3.cache_node;fillColor=#2E73B8;gradientColor=none;" vertex="1" parent="1">
          <mxGeometry x="560" y="430" width="60" height="63" as="geometry" />
        </mxCell>
        <mxCell id="os59JqNCktKEL3DrPtIN-8" value="Read service" style="rounded=1;whiteSpace=wrap;html=1;" vertex="1" parent="1">
          <mxGeometry x="425" y="340" width="120" height="60" as="geometry" />
        </mxCell>
        <mxCell id="os59JqNCktKEL3DrPtIN-9" value="Read service" style="rounded=1;whiteSpace=wrap;html=1;" vertex="1" parent="1">
          <mxGeometry x="435" y="350" width="120" height="60" as="geometry" />
        </mxCell>
        <mxCell id="os59JqNCktKEL3DrPtIN-10" value="Read service" style="rounded=1;whiteSpace=wrap;html=1;" vertex="1" parent="1">
          <mxGeometry x="445" y="360" width="120" height="60" as="geometry" />
        </mxCell>
        <mxCell id="os59JqNCktKEL3DrPtIN-11" style="edgeStyle=orthogonalEdgeStyle;rounded=0;orthogonalLoop=1;jettySize=auto;html=1;entryX=0;entryY=0.5;entryDx=0;entryDy=0;entryPerimeter=0;" edge="1" parent="1" source="os59JqNCktKEL3DrPtIN-1" target="os59JqNCktKEL3DrPtIN-2">
          <mxGeometry relative="1" as="geometry" />
        </mxCell>
        <mxCell id="os59JqNCktKEL3DrPtIN-15" style="edgeStyle=orthogonalEdgeStyle;rounded=0;orthogonalLoop=1;jettySize=auto;html=1;entryX=0.5;entryY=0;entryDx=0;entryDy=0;entryPerimeter=0;" edge="1" parent="1" source="os59JqNCktKEL3DrPtIN-5" target="os59JqNCktKEL3DrPtIN-6">
          <mxGeometry relative="1" as="geometry" />
        </mxCell>
        <mxCell id="os59JqNCktKEL3DrPtIN-16" style="edgeStyle=orthogonalEdgeStyle;rounded=0;orthogonalLoop=1;jettySize=auto;html=1;entryX=0;entryY=0.5;entryDx=0;entryDy=0;entryPerimeter=0;" edge="1" parent="1" source="os59JqNCktKEL3DrPtIN-10" target="os59JqNCktKEL3DrPtIN-7">
          <mxGeometry relative="1" as="geometry" />
        </mxCell>
        <mxCell id="os59JqNCktKEL3DrPtIN-17" style="edgeStyle=orthogonalEdgeStyle;rounded=0;orthogonalLoop=1;jettySize=auto;html=1;entryX=0;entryY=0.5;entryDx=0;entryDy=0;entryPerimeter=0;" edge="1" parent="1" source="os59JqNCktKEL3DrPtIN-10" target="os59JqNCktKEL3DrPtIN-6">
          <mxGeometry relative="1" as="geometry" />
        </mxCell>
        <mxCell id="os59JqNCktKEL3DrPtIN-18" value="Database" style="shape=cylinder3;whiteSpace=wrap;html=1;boundedLbl=1;backgroundOutline=1;size=15;" vertex="1" parent="1">
          <mxGeometry x="850" y="270" width="60" height="80" as="geometry" />
        </mxCell>
        <mxCell id="os59JqNCktKEL3DrPtIN-19" value="Database" style="shape=cylinder3;whiteSpace=wrap;html=1;boundedLbl=1;backgroundOutline=1;size=15;" vertex="1" parent="1">
          <mxGeometry x="860" y="280" width="60" height="80" as="geometry" />
        </mxCell>
      </root>
    </mxGraphModel>
  </diagram>
</mxfile>
